<svg xmlns="http://www.w3.org/2000/svg" xmlns:xlink="http://www.w3.org/1999/xlink" id="Layer_1" x="0px" y="0px" viewBox="-49 141 512 512" style="enable-background:new -49 141 512 512;" xml:space="preserve"><style type="text/css">	.st0{fill:#805EF0;}	.st1{fill:#FFFFFF;}	.st2{fill:#FCAD6D;}	.st3{fill:#E9EFFF;}	.st4{fill:#BEC9F7;}	.st5{fill:#47477F;}	.st6{fill:#5F5F9B;}	.st7{fill:#FD995B;}	.st8{fill:#FCD7C3;}	.st9{fill:#BEC8F7;}	.st10{fill:#3B3868;}	.st11{fill:#7272AF;}	.st12{fill:#2D2D59;}</style><g>	<path class="st0" d="M250.3,144.8l-94.3,1.5C45.2,169.8-38,268.2-38,386c0,135.3,109.7,245,245,245s245-109.7,245-245  C452,265.5,365,165.3,250.3,144.8L250.3,144.8z"></path>	<path class="st1" d="M36.1,524.5v98.3c0,16.6,13.6,30.2,30.2,30.2h281.3c16.6,0,30.2-13.6,30.2-30.2v-98.3H36.1z"></path>	<path class="st1" d="M116.8,625l-3.6-100.5H36.1v98.3c0,16.6,13.6,30.2,30.2,30.2h50.5C102.2,638.3,116.8,625,116.8,625L116.8,625z  "></path>	<path class="st0" d="M349.8,524.5H64.2v91.8c0,4.8,3.9,8.7,8.7,8.7h268.3c4.8,0,8.7-3.9,8.7-8.7V524.5z"></path>	<g>		<path class="st0" d="M104.2,612.4v-52.8c0-4.2,2.1-7.9,5.3-10.2v-24.9H64.2v91.8c0,4.8,3.9,8.7,8.7,8.7h44   C109.9,625,104.2,619.3,104.2,612.4L104.2,612.4z"></path>	</g>	<path class="st2" d="M223.2,349.3c-6.9,0-12.6-5.7-12.6-12.6c0,6.9-5.7,12.6-12.6,12.6c-6.7,0-12.2-5.3-12.6-11.9v-1  c0,6.5-4.9,12.2-11.4,12.9c-7.5,0.7-13.9-5.2-13.9-12.6c0-3.3,0-90.4,0-92.9v-31.3h85.8v9.5c0,4.4,1.6,8.7,4.5,12  c6.7,7.8,10.6,18,10.6,28.8v73.8c0,7.4-6.4,13.3-13.9,12.6c-6.5-0.6-11.4-6.3-11.4-12.9v1C235.4,344,229.9,349.3,223.2,349.3  L223.2,349.3z"></path>	<g>		<path class="st3" d="M306,382.9c-3.7,0-6.9-2.7-7.5-6.5c-2.9-19.4-13-37-28.4-49.4c-1.9-1.5-4-2.9-6.2-4   c-3.7-1.9-5.2-6.4-3.4-10.2c1.9-3.7,6.4-5.2,10.2-3.4c3.2,1.6,6.2,3.5,8.9,5.7c18.4,14.8,30.4,35.7,33.8,58.9   c0.6,4.1-2.2,8-6.4,8.6C306.8,382.9,306.4,382.9,306,382.9L306,382.9z"></path>	</g>	<g>		<path class="st4" d="M296.4,332.8c-4.8-6.5-10.4-12.4-16.7-17.5c-2.7-2.2-5.7-4.1-8.9-5.7c-3.7-1.9-8.3-0.4-10.2,3.4   c-1.9,3.7-0.4,8.3,3.4,10.2c2.2,1.1,4.3,2.5,6.2,4c5.6,4.5,10.6,9.8,14.7,15.6C284,336.1,290.2,330.9,296.4,332.8L296.4,332.8z"></path>	</g>	<g>		<path class="st4" d="M108,382.9c-0.4,0-0.7,0-1.1-0.1c-4.1-0.6-7-4.5-6.4-8.6c3.5-23.2,15.5-44.1,33.8-58.9   c2.7-2.2,5.7-4.1,8.9-5.7c3.7-1.9,8.3-0.4,10.2,3.4c1.9,3.7,0.4,8.3-3.4,10.2c-2.2,1.1-4.3,2.5-6.2,4   c-15.4,12.4-25.5,29.9-28.4,49.4C114.9,380.2,111.7,382.9,108,382.9L108,382.9z"></path>	</g>	<path class="st5" d="M261.5,319.4H152.5c-6.5,0-11.9-5-12.4-11.4H140v18.6c0,6.9,5.6,12.5,12.5,12.5h109.1  c6.9,0,12.5-5.6,12.5-12.5V308h-0.1C273.4,314.4,268.1,319.4,261.5,319.4z"></path>	<path class="st6" d="M261.5,320.4H152.5c-6.9,0-12.5-5.6-12.5-12.5s5.6-12.5,12.5-12.5h109.1c6.9,0,12.5,5.6,12.5,12.5  S268.4,320.4,261.5,320.4z"></path>	<path class="st2" d="M198,350.4c6.9,0,12.6-5.7,12.6-12.6v-35.5c0-6.9-5.7-12.6-12.6-12.6s-12.6,5.7-12.6,12.6v35.5  C185.3,344.8,191,350.4,198,350.4z"></path>	<path class="st2" d="M223.2,350.4c6.9,0,12.6-5.7,12.6-12.6v-35.5c0-6.9-5.7-12.6-12.6-12.6c-6.9,0-12.6,5.7-12.6,12.6v35.5  C210.6,344.8,216.3,350.4,223.2,350.4z"></path>	<path class="st2" d="M172.7,350.4c6.9,0,12.6-5.7,12.6-12.6v-35.5c0-6.9-5.7-12.6-12.6-12.6s-12.6,5.7-12.6,12.6v35.5  C160.1,344.8,165.8,350.4,172.7,350.4z"></path>	<path class="st7" d="M160.1,302.3v20.5c2-5,6.9-8.6,12.6-8.6s10.6,3.6,12.6,8.6v-20.5c0-6.9-5.7-12.6-12.6-12.6  S160.1,295.3,160.1,302.3z"></path>	<path class="st2" d="M248.4,350.4c6.9,0,12.6-5.7,12.6-12.6v-35.5c0-6.9-5.7-12.6-12.6-12.6s-12.6,5.7-12.6,12.6v35.5  C235.8,344.8,241.5,350.4,248.4,350.4z"></path>	<path class="st7" d="M185.3,302.3v20.5c2-5,6.9-8.6,12.6-8.6s10.6,3.6,12.6,8.6v-20.5c0-6.9-5.7-12.6-12.6-12.6  S185.3,295.3,185.3,302.3L185.3,302.3z"></path>	<path class="st7" d="M210.6,302.3v20.5c2-5,6.9-8.6,12.6-8.6s10.6,3.6,12.6,8.6v-20.5c0-6.9-5.7-12.6-12.6-12.6  S210.6,295.3,210.6,302.3z"></path>	<path class="st7" d="M235.8,302.3v20.5c2-5,6.9-8.6,12.6-8.6s10.6,3.6,12.6,8.6v-20.5c0-6.9-5.7-12.6-12.6-12.6  S235.8,295.3,235.8,302.3z"></path>	<path class="st2" d="M185.5,315.8l-36-11.2c-4-1.2-7.2-4.3-8.7-8.2c-4-10.5-7.8-33.3,13.7-64.7c3.3-4.8,5.1-10.5,5.1-16.4v-2.9  h36.9v24.7c0,35.5-28.5,45.4-28.5,45.4c29.8,5.6,29.6,20.8,27.9,27.5C194.8,314.5,190,317.3,185.5,315.8L185.5,315.8z"></path>	<path class="st7" d="M155.3,306.5l14.4,4.5c8.1-14,20.1-7.5,26.5-2.3c1.3-7.2-0.3-20.8-28.2-26l-3.9,1.3  C173.8,301,155.3,306.5,155.3,306.5L155.3,306.5z"></path>	<path class="st8" d="M196,310.1c0.1-0.5,0.2-1,0.3-1.6c-6.3-5.3-18.5-12.4-26.7,2.4l16,5C190.1,317.3,194.8,314.5,196,310.1z"></path>	<path class="st7" d="M194.9,250.7c-2.1-0.5-4.2,0.7-4.9,2.7c-6.3,19-22.4,25.1-23.3,25.4c-2.1,0.7-3.3,3.1-2.5,5.2  c0.7,2.1,3.1,3.3,5.2,2.5c0.3-0.1,8.1-2.9,15.8-10.3c4.5-4.4,9.6-10.9,12.6-20.2C198.6,253.7,197.2,251.3,194.9,250.7L194.9,250.7z  "></path>	<g>		<path class="st7" d="M227.6,228.5c-11,0.1-17.3,3.4-20.8,6.4c-2.7,2.4-6.7,2.8-9.8,0.8c-8.8-5.5-26.8-12.2-47,5.9   c-0.9,0.8-1.9,1.6-2.8,2.3c2-3.9,4.5-8,7.3-12.2c3.3-4.8,5.1-10.5,5.1-16.4v-2.9h86.3v9.5c0,4.4,1.6,8.7,4.5,12   c2.6,3.1,4.8,6.5,6.5,10.1C253.1,239,243.2,228.4,227.6,228.5z"></path>	</g>	<path class="st1" d="M250.3,144.8c-14.1-2.5-28.5-3.8-43.3-3.8c-17.5,0-34.5,1.8-51,5.3v30.4h94.3V144.8z"></path>	<path class="st3" d="M250.1,172.1h-93.9c-2.5,0-4.6,2.1-4.6,4.6v32.5c0,2.5,2.1,4.6,4.6,4.6h93.9c2.5,0,4.6-2.1,4.6-4.6v-32.5  C254.7,174.2,252.7,172.1,250.1,172.1z"></path>	<path class="st9" d="M203.2,209.2v-32.5c0-2.5,2.1-4.6,4.6-4.6h-51.6c-2.5,0-4.6,2.1-4.6,4.6v32.5c0,2.5,2.1,4.6,4.6,4.6h51.6  C205.3,213.8,203.2,211.7,203.2,209.2z"></path>	<path class="st5" d="M378,525.5H36c-5,0-9-4.1-9-9V397.3c0-12.1,9.9-22,22-22H365c12.1,0,22,9.9,22,22v119.2  C387,521.5,383,525.5,378,525.5z"></path>	<g>		<path class="st10" d="M109.5,440c-5.2-1.5-9.1-6.3-9.1-12v-40.1c0-6.9,5.6-12.5,12.5-12.5H49c-12.1,0-22,9.9-22,22v119.2   c0,5,4.1,9,9,9h73.5L109.5,440L109.5,440z"></path>	</g>	<path class="st11" d="M93.1,499.4v38.4c0,7.1,5.7,12.8,12.8,12.8s12.8-5.7,12.8-12.8v-38.4H93.1z"></path>	<path class="st6" d="M118.7,474.1H93.1v-33.4c0-1.6,1.3-2.9,2.9-2.9h19.8c1.6,0,2.9,1.3,2.9,2.9L118.7,474.1L118.7,474.1z"></path>	<path class="st11" d="M295.3,499.4v38.4c0,7.1,5.7,12.8,12.8,12.8s12.8-5.7,12.8-12.8v-38.4H295.3z"></path>	<g>		<path class="st6" d="M93.1,499.4v34.1c0-7.1,5.7-12.8,12.8-12.8s12.8,5.7,12.8,12.8v-34.1H93.1z"></path>		<path class="st6" d="M295.3,499.4v34.1c0-7.1,5.7-12.8,12.8-12.8s12.8,5.7,12.8,12.8v-34.1H295.3z"></path>		<path class="st6" d="M320.9,474.1h-25.6v-33.4c0-1.6,1.3-2.9,2.9-2.9H318c1.6,0,2.9,1.3,2.9,2.9L320.9,474.1L320.9,474.1z"></path>	</g>	<path class="st10" d="M142.7,405.6h128.5c4.9,0,8.9-4,8.9-8.9v-21.3H133.8v21.3C133.8,401.6,137.8,405.6,142.7,405.6L142.7,405.6z"></path>	<path class="st12" d="M237.1,375.4v21.3c0,4.9-4,8.9-8.9,8.9h43.1c4.9,0,8.9-4,8.9-8.9v-21.3H237.1z"></path>	<g>		<path class="st1" d="M274.3,486.8c0-11.1,9.1-20.2,20.2-20.2h27.2c11.1,0,20.2,9.1,20.2,20.2s-9.1,20.2-20.2,20.2h-27.2   C283.3,507,274.3,497.9,274.3,486.8z M294.5,481.7c-2.7,0-5.1,2.3-5.1,5.1s2.3,5.1,5.1,5.1h27.2c2.7,0,5.1-2.3,5.1-5.1   s-2.3-5.1-5.1-5.1H294.5z"></path>	</g>	<path class="st1" d="M308.7,491.8h12.7c2.4,0,4.6-1.5,5.2-3.8c0.8-3.2-1.8-6.3-4.9-6.3h-13c-4.2,0-7.6-3.4-7.6-7.6  c0-4.2,3.4-7.6,7.6-7.6h12.5c10.9,0,20.3,8.5,20.7,19.4c0.4,11.5-8.8,21-20.2,21h-13c-4.2,0-7.6-3.4-7.6-7.6  S304.5,491.8,308.7,491.8L308.7,491.8z"></path>	<g>		<path class="st1" d="M72.1,486.8c0-11.1,9.1-20.2,20.2-20.2h27.2c11.1,0,20.2,9.1,20.2,20.2s-9.1,20.2-20.2,20.2H92.3   C81.2,507,72.1,497.9,72.1,486.8z M92.3,481.7c-2.7,0-5.1,2.3-5.1,5.1s2.3,5.1,5.1,5.1h27.2c2.7,0,5.1-2.3,5.1-5.1   s-2.3-5.1-5.1-5.1H92.3z"></path>	</g>	<path class="st1" d="M106.5,491.8h12.7c2.4,0,4.6-1.5,5.2-3.8c0.8-3.2-1.8-6.3-4.9-6.3h-13c-4.2,0-7.6-3.4-7.6-7.6  c0-4.2,3.4-7.6,7.6-7.6H119c10.9,0,20.3,8.5,20.7,19.4c0.4,11.5-8.8,21-20.2,21h-13c-4.2,0-7.6-3.4-7.6-7.6  C98.9,495.2,102.3,491.8,106.5,491.8L106.5,491.8z"></path></g></svg>