<svg xmlns="http://www.w3.org/2000/svg" xmlns:xlink="http://www.w3.org/1999/xlink" id="Layer_1" x="0px" y="0px" viewBox="-57 149 496 496" style="enable-background:new -57 149 496 496;" xml:space="preserve"><style type="text/css">	.st0{fill:#805EF0;}</style><path class="st0" d="M295,597h112V453H295V597z M311,565h48v16h-48V565z M359,501v16h-16v-16H359z M343,485v-16h16v16H343z M375,533 h16v16h-16V533z M359,549h-16v-16h16V549z M375,517v-16h16v16H375z M327,517h-16v-16h16V517z M327,533v16h-16v-16H327z M375,581v-16 h16v16H375z M391,485h-16v-16h16V485z M327,469v16h-16v-16H327z"></path><path class="st0" d="M-25,597h304V453H-25V597z M-9,565h32v16H-9V565z M135,549v-16h32v16H135z M135,517v-16h32v16H135z M119,517H87 v-16h32V517z M119,533v16H87v-16H119z M71,549H39v-16h32V549z M215,565v16H39v-16H215z M183,549v-16h32v16H183z M231,533h32v16h-32 V533z M231,517v-16h32v16H231z M215,517h-32v-16h32V517z M183,485v-16h32v16H183z M167,485h-32v-16h32V485z M119,485H87v-16h32V485z  M71,485H39v-16h32V485z M71,501v16H39v-16H71z M23,517H-9v-16h32V517z M23,533v16H-9v-16H23z M231,581v-16h32v16H231z M263,485h-32 v-16h32V485z M23,469v16H-9v-16H23z"></path><path class="st0" d="M55,389h16v16H55V389z"></path><path class="st0" d="M87,389h16v16H87V389z"></path><path class="st0" d="M119,389h16v16h-16V389z"></path><path class="st0" d="M295,389h32v16h-32V389z"></path><path class="st0" d="M247,389h32v16h-32V389z"></path><path class="st0" d="M-9,245h42.4l2-1.3c14.4-9.6,31.1-14.7,48.4-14.7H103v-24h128v16h16v-32H103v-24H83.8c-17.3,0-34-5.1-48.4-14.7 l-2-1.3H-9v16h-48v64h48V245z M7,165h21.6c16.6,10.5,35.6,16,55.2,16H87v32h-3.2c-19.6,0-38.7,5.5-55.2,16H7V165z M-41,213v-32h32 v32H-41z"></path><path class="st0" d="M223,293h176c22.1,0,40-17.9,40-40v-24c0-22.1-17.9-40-40-40h-56v-16h-16v32h72c13.2,0,24,10.8,24,24v24 c0,13.2-10.8,24-24,24H223c-22.1,0-40,17.9-40,40v8h-8c-13.2,0-24,10.8-24,24v8H-3.4L-57,392.7v215.6l36.7,36.7H97.4l24-16h139.2 l24,16h117.7l36.7-36.7V392.7L385.4,357H231v-8c0-13.2-10.8-24-24-24h-8v-8C199,303.8,209.8,293,223,293z M423,401.3v200.4 L395.7,629H289.4l-24-16H116.6l-24,16H-13.7L-41,601.7V401.3L1.4,373h7.3l16,64h332.5l16-64h7.3L423,401.3z M215,349v8h-32v16h173.8 l-12,48H37.2l-12-48H167v-24c0-4.4,3.6-8,8-8h32C211.4,341,215,344.6,215,349z"></path><path class="st0" d="M295,173h16v48h-16V173z"></path><path class="st0" d="M263,173h16v48h-16V173z"></path></svg>