<svg xmlns="http://www.w3.org/2000/svg" xmlns:xlink="http://www.w3.org/1999/xlink" id="Capa_1" x="0px" y="0px" viewBox="-49 141 512 512" style="enable-background:new -49 141 512 512;" xml:space="preserve"><style type="text/css">	.st0{fill:#FCE0A2;}	.st1{fill:#F2CA91;}	.st2{fill:#805EEF;}	.st3{fill:#F2CA8F;}	.st4{fill:#14141D;}	.st5{fill:#E9F6FF;}	.st6{fill:#CCDFED;}</style><path class="st0" d="M246.7,453.4c-9.3-1.9-15.9-10-15.9-19.4v-44.7H187l0,0h-43.8V434c0,9.4-6.7,17.6-15.9,19.4l-10.7,2.1v71.7H187 l0,0h70.4v-71.7L246.7,453.4z"></path><path class="st1" d="M188.2,389.3v61.2c0,9.4,6.7,17.6,15.9,19.4l53.3,13v-27.4l-10.7-2.1c-9.3-1.9-15.9-10-15.9-19.4v-44.7H188.2z"></path><path class="st2" d="M338,477.5l-89-27.7c-2.1-0.6-4.3-0.2-6,1.1L187,495.4l-55.9-44.5c-1.7-1.4-4-1.8-6-1.1l-89,27.7 c-39,11.5-65.7,47.2-65.7,87.9v58.6c0,4.7,3.8,8.4,8.4,8.4h416.5c4.7,0,8.4-3.8,8.4-8.4v-58.6C403.7,524.7,376.9,488.9,338,477.5z"></path><path class="st2" d="M338,477.5l-89-27.7c-2.1-0.6-4.3-0.2-6,1.1L217.6,471l77.4,24.1c39,11.5,65.7,47.2,65.7,87.9v49.3h34.6 c4.7,0,8.4-3.8,8.4-8.4v-58.6C403.7,524.7,376.9,488.9,338,477.5z"></path><g>	<path class="st3" d="M298.5,342.7h-17.8v-51.6h17.8c9.2,0,16.6,7.4,16.6,16.6v18.4C315.1,335.3,307.7,342.7,298.5,342.7z"></path>	<path class="st3" d="M75.5,342.7h17.8v-51.6H75.5c-9.2,0-16.6,7.4-16.6,16.6v18.4C58.9,335.3,66.3,342.7,75.5,342.7z"></path></g><path class="st0" d="M187,424.3L187,424.3c-57.4,0-104-46.5-104-104v-29.2c0-57.4,46.5-104,104-104l0,0c57.4,0,104,46.5,104,104 v29.2C291,377.8,244.4,424.3,187,424.3z"></path><path class="st1" d="M187,187.2L187,187.2c-7.4,0-14.5,0.8-21.4,2.2c47.1,9.9,82.5,51.7,82.5,101.7v29.2 c0,50.1-35.4,91.8-82.5,101.7c6.9,1.5,14.1,2.2,21.4,2.2l0,0c57.4,0,104-46.5,104-104v-29.2C291,233.7,244.4,187.2,187,187.2z"></path><path class="st4" d="M204.7,148.5h-35.4C109.5,148.5,61,197,61,256.8v42.8c2.8-5.1,8.3-8.5,14.5-8.5h7.5c0-12.6,2.3-24.8,6.4-36 c46-13,92.7,22.5,143.5,22.5c25.4,0,42.7-5.7,54.4-12.6l0.3,0c2.2,8.3,3.3,17.1,3.3,26.1h7.5c6.2,0,11.6,3.4,14.5,8.5v-42.8 C313,197,264.5,148.5,204.7,148.5z"></path><path class="st4" d="M204.7,148.5h-35.4c-1.3,0-2.5,0-3.8,0.1c58.1,2,104.5,49.7,104.5,108.2v15.8c6.8-2.1,12.5-4.7,17.3-7.5l0.3,0 c2.2,8.3,3.3,17.1,3.3,26.1h7.5c6.2,0,11.6,3.4,14.5,8.5v-42.8C313,197,264.5,148.5,204.7,148.5z"></path><circle class="st5" cx="354.8" cy="556.6" r="88.9"></circle><path class="st6" d="M354.8,467.8c-7.4,0-14.7,0.9-21.6,2.6c38.7,9.6,67.3,44.6,67.3,86.2s-28.6,76.6-67.3,86.2 c6.9,1.7,14.1,2.6,21.6,2.6c49.1,0,88.9-39.8,88.9-88.9C443.7,507.5,403.9,467.8,354.8,467.8z"></path><g>	<path class="st2" d="M187,495.4l-22.7,19.8c-3.8,3.3-9.4,3.1-12.9-0.4l-55.9-55.8l29.5-9.2c2.1-0.6,4.3-0.2,6,1.1L187,495.4z"></path>	<path class="st2" d="M187,495.4l22.7,19.8c3.8,3.3,9.4,3.1,12.9-0.4l55.9-55.8l-29.5-9.2c-2.1-0.6-4.3-0.2-6,1.1L187,495.4z"></path></g><path d="M400.5,550.7h-38.2v-38.2c0-4.1-3.4-7.5-7.5-7.5s-7.5,3.4-7.5,7.5v38.2h-38.2c-4.1,0-7.5,3.4-7.5,7.5s3.4,7.5,7.5,7.5h38.2 v38.2c0,4.1,3.4,7.5,7.5,7.5s7.5-3.4,7.5-7.5v-38.2h38.2c4.1,0,7.5-3.4,7.5-7.5S404.6,550.7,400.5,550.7z"></path><path d="M354.8,460.3c-10.7,0-21.1,1.8-30.7,5l-43.4-13.5c0,0,0,0,0,0l-29.5-9.2c-3-0.9-6.2-0.8-9.1,0.3c-2.4-2.3-3.8-5.5-3.8-8.9 v-14.7c27.1-14.1,47.7-39.1,56.1-69.1h4.1c13.3,0,24.1-10.8,24.1-24.1v-18.4c0-3.5-0.8-6.9-2.1-9.9v-41c0-17-3.6-33.3-10.7-48.6 c-1.7-3.8-6.2-5.4-10-3.7c-3.8,1.7-5.4,6.2-3.6,10c6.2,13.3,9.3,27.5,9.3,42.3v27.8c-0.5-0.2-1.1-0.3-1.6-0.4c0,0-0.1,0-0.1,0 c-1.1-0.2-2.1-0.4-3.3-0.5c-0.1,0-0.3,0-0.4,0c-0.5,0-1-0.1-1.6-0.1c0,0,0,0,0,0h-0.3c-0.1-1-0.2-2-0.2-3l0-0.4c0-0.2,0-0.3-0.1-0.5 c-0.1-0.8-0.2-1.6-0.3-2.4c0-0.2-0.1-0.5-0.1-0.7c-0.1-0.9-0.3-1.9-0.4-2.8c0-0.1,0-0.1,0-0.2l0-0.1c-0.2-1.2-0.4-2.3-0.6-3.5 l-0.1-0.5c0-0.1,0-0.2-0.1-0.3c-0.1-0.7-0.3-1.4-0.5-2.1c0-0.1,0-0.1,0-0.2l-0.1-0.6c0-0.1,0-0.2-0.1-0.2c-0.2-1-0.5-2-0.7-3 c-0.2-0.7-0.5-1.4-0.9-2.1c0-0.1-0.1-0.2-0.1-0.2c-0.1-0.1-0.2-0.2-0.3-0.3c-1.4-1.9-3.6-3-6-3c0,0-0.1,0-0.1,0l-0.3,0 c-1.3,0-2.6,0.4-3.7,1c-13,7.7-30,11.6-50.6,11.6c-2.6,0-5.2-0.1-7.8-0.3c-5-0.4-10-1.1-15-2c-0.2,0-0.4-0.1-0.5-0.1 c-9.5-1.8-18.9-4.5-28.2-7.3c-3.4-1-6.7-2.1-10.1-3.1c-27.4-8.6-55.6-17.4-83.9-9.4c-2.3,0.7-4.2,2.4-5,4.6c0,0,0,0,0,0 c-0.4,1.1-0.8,2.2-1.2,3.4c-0.1,0.2-0.2,0.5-0.2,0.7c0,0.1,0,0.1-0.1,0.2l-0.1,0.4c-0.3,0.8-0.5,1.6-0.7,2.4 c-0.1,0.4-0.2,0.8-0.3,1.2c-0.1,0.2-0.1,0.5-0.2,0.7l-0.1,0.4c0,0.2-0.1,0.3-0.1,0.5c-0.3,1-0.5,2.1-0.8,3.2 c-0.1,0.3-0.1,0.5-0.2,0.8l0,0.2c0,0.2-0.1,0.4-0.1,0.6c-0.1,0.4-0.2,0.8-0.3,1.2c-0.2,0.9-0.4,1.8-0.5,2.7c0,0,0,0.1,0,0.1 c0,0.1,0,0.1,0,0.2c-0.1,0.3-0.1,0.6-0.2,0.9c-0.1,0.7-0.2,1.5-0.4,2.3c-0.1,0.5-0.2,1-0.2,1.5l0,0.2c-0.1,0.8-0.2,1.7-0.3,2.6 c-0.1,0.5-0.1,1-0.2,1.5c0,0.1,0,0.2,0,0.4l-0.1,0.7c0,0.4-0.1,0.9-0.1,1.3c0,0.3-0.1,0.6-0.1,0.9h-0.3c0,0,0,0,0,0 c-0.5,0-1,0-1.6,0.1c-0.1,0-0.3,0-0.4,0c-1.1,0.1-2.2,0.3-3.3,0.5c0,0-0.1,0-0.1,0c-0.6,0.1-1.1,0.3-1.6,0.4v-27.8 c0-55.6,45.2-100.8,100.8-100.8h35.4c27.9,0,53.9,11.2,73.1,31.4c2.9,3,7.6,3.1,10.6,0.3c3-2.9,3.1-7.6,0.3-10.6 c-22.1-23.3-51.9-36.1-84-36.1h-35.4c-63.8,0-115.8,51.9-115.8,115.8v41c-1.4,3-2.1,6.4-2.1,9.9v18.4c0,13.3,10.8,24.1,24.1,24.1 h4.1c8.4,30,29,54.9,56.1,69.1V434c0,3.4-1.4,6.6-3.8,8.9c-2.9-1.1-6.1-1.2-9.1-0.3l-88.9,27.7c-14.3,4.2-27.2,11.4-38.2,21.4 c-3.1,2.8-3.3,7.5-0.6,10.6c2.8,3.1,7.5,3.3,10.6,0.6c9.4-8.5,20.3-14.6,32.5-18.2c0,0,0.1,0,0.1,0l55.1-17.2l52.7,52.6 c3.3,3.3,7.6,5,12,5c4,0,8-1.4,11.2-4.2l17.7-15.5l17.7,15.5c3.2,2.8,7.2,4.2,11.2,4.2c4.4,0,8.7-1.7,12-5l52.7-52.6l23.4,7.3 c-5.5,3.5-10.7,7.4-15.4,11.9c-0.2,0.2-0.5,0.5-0.7,0.7c-0.3,0.3-0.7,0.6-1,1c-16.2,16-26.7,37.8-28.3,61.9c0,0.2,0,0.3,0,0.5 c0,0.8-0.1,1.6-0.1,2.4c0,0.2,0,0.5,0,0.7c0,1,0,1.9,0,2.9c0,0.8,0,1.7,0,2.5c0,0,0,0.1,0,0.1c0.7,25.1,10.8,48.3,28.2,65.6H34 v-68.2c0-4.1-3.4-7.5-7.5-7.5s-7.5,3.4-7.5,7.5v68.2h-40.3c-0.5,0-0.9-0.4-0.9-0.9v-58.6c0-12.7,2.8-24.9,8.2-36.3 c1.8-3.7,0.2-8.2-3.5-10c-3.7-1.8-8.2-0.2-10,3.5c-6.4,13.4-9.7,27.8-9.7,42.8v58.6c0,8.8,7.2,15.9,15.9,15.9h327.5 c14.3,8.4,30.9,13.2,48.6,13.2c53.1,0,96.4-43.2,96.4-96.4C451.2,503.5,408,460.3,354.8,460.3z M297.5,335.1c0.3-2.3,0.5-4.6,0.7-7 c0-0.3,0-0.5,0.1-0.8c0.1-0.9,0.1-1.8,0.1-2.7c0-0.3,0-0.6,0-0.9c0-1.1,0.1-2.3,0.1-3.4v-21.8h0c0,0,0,0,0,0c0.4,0,0.7,0,1.1,0.1 c0.1,0,0.2,0,0.3,0c0.3,0,0.6,0.1,0.9,0.2c0.1,0,0.1,0,0.2,0.1c0.7,0.2,1.4,0.5,2.1,0.9c0,0,0.1,0,0.1,0.1c0.3,0.2,0.6,0.4,0.9,0.6 c0,0,0.1,0,0.1,0.1c0.6,0.5,1.1,1,1.6,1.6c0,0,0.1,0.1,0.1,0.1c0.2,0.3,0.4,0.6,0.6,1c0,0,0,0,0,0c0.7,1.3,1.2,2.8,1.2,4.4v18.4 c0,5-4.1,9.1-9.1,9.1h-1C297.5,335.2,297.5,335.1,297.5,335.1z M75.5,335.2c-5,0-9.1-4.1-9.1-9.1v-18.4c0-1.6,0.4-3.1,1.2-4.5 c0.2-0.3,0.4-0.6,0.6-0.9c0,0,0.1-0.1,0.1-0.1c0.5-0.6,1-1.2,1.6-1.6c0,0,0.1-0.1,0.1-0.1c0.3-0.2,0.6-0.4,0.8-0.6 c0,0,0.1-0.1,0.1-0.1c0.6-0.4,1.3-0.7,2.1-0.9c0.1,0,0.1,0,0.2-0.1c0.3-0.1,0.6-0.1,0.9-0.2c0.1,0,0.2,0,0.3,0 c0.4,0,0.7-0.1,1.1-0.1c0,0,0,0,0,0l0,21.8c0,1.1,0,2.3,0.1,3.4c0,0.3,0,0.6,0,0.9c0,0.9,0.1,1.8,0.1,2.7c0,0.3,0,0.5,0.1,0.8 c0.2,2.3,0.4,4.7,0.7,7c0,0,0,0.1,0,0.1L75.5,335.2L75.5,335.2z M92.6,340.3c-0.1-0.4-0.2-0.7-0.2-1.1c-0.1-0.4-0.2-0.8-0.2-1.2 c-0.1-0.5-0.2-0.9-0.2-1.4c-0.1-0.3-0.1-0.7-0.2-1c-0.1-0.5-0.2-1.1-0.2-1.6c0-0.3-0.1-0.6-0.1-0.8c-0.1-0.6-0.2-1.2-0.2-1.8 c0-0.2-0.1-0.5-0.1-0.7c-0.1-0.6-0.1-1.3-0.2-1.9c0-0.2,0-0.4-0.1-0.6c-0.1-0.7-0.1-1.3-0.1-2c0-0.2,0-0.4,0-0.6 c0-0.7-0.1-1.4-0.1-2c0-0.2,0-0.4,0-0.5c0-0.9,0-1.7,0-2.6v-29.2c0,0,0-0.1,0-0.1c0,0,0,0,0,0c0-1.1,0-2.1,0.1-3.2 c0-0.3,0-0.6,0-0.9l0-0.1c0-0.9,0.1-1.9,0.2-2.8c0-0.4,0.1-0.8,0.1-1.2c0.1-0.9,0.2-1.9,0.3-2.8c0-0.4,0.1-0.7,0.1-1 c0.1-0.8,0.2-1.6,0.3-2.3c0.1-0.4,0.1-0.7,0.2-1c0.2-1,0.3-2,0.5-2.9c0-0.2,0.1-0.5,0.1-0.7c0.2-1,0.4-2,0.7-3 c0.1-0.3,0.1-0.6,0.2-0.8c0.2-0.9,0.5-1.9,0.7-2.8c0.3-1,0.6-2,0.9-3c0.1-0.3,0.2-0.5,0.2-0.8l0.1-0.2c0,0,0,0,0-0.1 c1.4-0.3,2.9-0.6,4.3-0.8c16.1-2.5,32.7,0.8,49.8,5.7c5.8,1.6,11.6,3.5,17.5,5.3c21.1,6.6,43,13.5,66.1,13.5c1.2,0,2.4,0,3.6,0 c17.5-0.4,32.8-3.4,45.7-9.1c0,0.1,0,0.3,0.1,0.4c0.1,1,0.3,1.9,0.4,2.9c0,0.4,0.1,0.8,0.1,1.1c0.1,0.8,0.2,1.6,0.2,2.4 c0,0.4,0.1,0.8,0.1,1.2c0.1,0.8,0.1,1.6,0.1,2.4c0,0.3,0,0.6,0,0.9l0,0.2c0,1.1,0.1,2.3,0.1,3.4c0,0,0,0,0,0c0,0,0,0.1,0,0.1 c0,0,0,0,0,0v29.2c0,0.9,0,1.7,0,2.6c0,0.2,0,0.4,0,0.5c0,0.7,0,1.4-0.1,2c0,0.2,0,0.4,0,0.6c0,0.7-0.1,1.3-0.1,2 c0,0.2,0,0.4-0.1,0.6c-0.1,0.6-0.1,1.3-0.2,1.9c0,0.2-0.1,0.5-0.1,0.7c-0.1,0.6-0.1,1.2-0.2,1.8c0,0.3-0.1,0.6-0.1,0.8 c-0.1,0.5-0.2,1.1-0.2,1.6c-0.1,0.3-0.1,0.7-0.2,1c-0.1,0.5-0.2,0.9-0.2,1.4c-0.1,0.4-0.2,0.8-0.2,1.2c-0.1,0.4-0.1,0.7-0.2,1.1 c-8.7,41.3-43.9,72.9-86.9,76.2c-0.1,0-0.3,0-0.4,0c-0.7,0-1.4,0.1-2,0.1c-0.3,0-0.7,0-1,0c-0.5,0-1,0-1.5,0.1c-0.8,0-1.7,0-2.5,0 s-1.7,0-2.5,0c-0.5,0-1,0-1.5-0.1c-0.3,0-0.7,0-1,0c-0.7,0-1.4-0.1-2-0.1c-0.1,0-0.3,0-0.4,0C136.5,413.2,101.4,381.6,92.6,340.3z  M159.4,509.5c-0.8,0.7-2,0.6-2.7-0.1l-47.1-47.1l17.2-5.4l48.5,38.6L159.4,509.5z M144.2,451.7c4.1-4.8,6.5-11.1,6.5-17.7v-8.2 c1.9,0.7,3.9,1.3,5.8,1.8c0,0,0,0,0.1,0c1.6,0.5,3.3,0.9,4.9,1.3c0.2,0.1,0.5,0.1,0.7,0.2c1.4,0.3,2.9,0.6,4.3,0.9 c0.3,0.1,0.6,0.1,0.9,0.2c0.7,0.1,1.5,0.3,2.2,0.4c0.7,0.1,1.3,0.2,2,0.3c0.9,0.1,1.7,0.2,2.6,0.3c0.8,0.1,1.7,0.2,2.5,0.3 c0.5,0,0.9,0.1,1.4,0.1c1.2,0.1,2.5,0.2,3.7,0.2c0.3,0,0.7,0,1,0c1.4,0,2.7,0.1,4.1,0.1s2.7,0,4.1-0.1c0.3,0,0.7,0,1,0 c1.3-0.1,2.5-0.1,3.7-0.2c0.5,0,0.9-0.1,1.4-0.1c0.8-0.1,1.7-0.2,2.5-0.3c0.9-0.1,1.7-0.2,2.6-0.3c0.7-0.1,1.3-0.2,2-0.3 c0.7-0.1,1.5-0.2,2.2-0.4c0.3-0.1,0.6-0.1,0.9-0.2c1.5-0.3,2.9-0.6,4.3-0.9c0.2-0.1,0.5-0.1,0.7-0.2c1.7-0.4,3.3-0.8,4.9-1.3 c0,0,0,0,0.1,0c2-0.6,3.9-1.1,5.8-1.8v8.2c0,6.7,2.4,12.9,6.5,17.7L187,485.8L144.2,451.7z M217.3,509.5c-0.7,0.7-1.9,0.8-2.7,0.1 l-15.9-13.9l30-23.9l17.8-14.2c0,0,0,0,0,0l0.7-0.6l17.2,5.4L217.3,509.5z M354.8,638c-43.4,0-78.9-34.1-81.2-76.9 c0-0.2,0-0.5,0-0.7c-0.1-1.3-0.1-2.5-0.1-3.8c0-1.2,0-2.5,0.1-3.7c0-0.5,0.1-0.9,0.1-1.4c0-0.8,0.1-1.5,0.2-2.2 c0.1-0.6,0.1-1.2,0.2-1.7c0.1-0.5,0.1-1.1,0.2-1.6c2.1-15.8,8.8-30.4,18.9-42.3c0.4-0.4,0.7-0.9,1.1-1.3c0.3-0.4,0.7-0.7,1-1.1 c0.6-0.6,1.2-1.2,1.7-1.8c0.2-0.2,0.4-0.4,0.6-0.6c14.7-14.6,35-23.7,57.3-23.7c44.9,0,81.4,36.5,81.4,81.4S399.7,638,354.8,638z"></path></svg>