<svg xmlns="http://www.w3.org/2000/svg" xmlns:xlink="http://www.w3.org/1999/xlink" id="Layer_3" x="0px" y="0px" viewBox="-49 141 512 512" style="enable-background:new -49 141 512 512;" xml:space="preserve"><style type="text/css">	.st0{fill:#E2E7F6;}	.st1{fill:#805EF0;}	.st2{fill:#C8CDED;}	.st3{fill:#6BC13B;}	.st4{fill:#78A0D4;}</style><path class="st0" d="M367,589V197c0-22.1-17.9-40-40-40H7c22.1,0,40,17.9,40,40v390c-0.4,26.4,20.1,48.5,46.5,50 c26.5,0.8,48.6-20,49.5-46.5c0-0.5,0-1,0-1.5H367z"></path><path class="st1" d="M407,365L263,509l-40-40l144-144L407,365z"></path><path class="st1" d="M263,509l-40-40l-32,72L263,509z"></path><path class="st1" d="M235.3,521.3l-24.6-24.6L191,541L235.3,521.3z"></path><path class="st1" d="M366.9,325l24-24l40,40l-24,24L366.9,325z"></path><path class="st1" d="M391,301l40,40l7.7-7.7c5.3-5.3,8.3-12.5,8.3-20c0-15.6-12.7-28.3-28.3-28.3c-7.5,0-14.7,3-20,8.3L391,301z"></path><g>	<path class="st1" d="M47,293h-64c-8.8,0-16-7.2-16-16v-80c0-22.1,17.9-40,40-40s40,17.9,40,40V293z"></path>	<path class="st1" d="M93.5,637c26.5,0.8,48.6-20,49.5-46.5c0-0.5,0-1,0-1.5h256c0,26.5-21.5,48-48,48H93.5z"></path>	<path class="st2" d="M79,285h80v80H79V285z"></path></g><path class="st3" d="M127,349c-2.1,0-4.2-0.8-5.7-2.3l-24-24l11.3-11.3l18.3,18.3l66.3-66.3l11.3,11.3l-72,72 C131.2,348.2,129.1,349,127,349z"></path><path class="st2" d="M79,413h80v80H79V413z"></path><path class="st3" d="M127,477c-2.1,0-4.2-0.8-5.7-2.3l-24-24l11.3-11.3l18.3,18.3l66.3-66.3l11.3,11.3l-72,72 C131.2,476.2,129.1,477,127,477z"></path><path class="st1" d="M119,189h176c13.3,0,24,10.7,24,24l0,0c0,13.3-10.7,24-24,24H119c-13.3,0-24-10.7-24-24l0,0 C95,199.7,105.7,189,119,189z"></path><path class="st1" d="M327,365H191v-32h168"></path><path class="st4" d="M279,549h64v16h-64V549z"></path><path class="st1" d="M119,189c-13.3,0-24,10.7-24,24s10.7,24,24,24h137.8c14.7-13.5,26.6-29.8,34.8-48H119z"></path><path d="M444.4,338.9c14-14.3,13.8-37.3-0.6-51.3c-14.1-13.8-36.7-13.8-50.8,0l-18,18V197c0-26.5-21.5-48-48-48H7 c-26.5,0-48,21.5-48,48v80c0,13.3,10.7,24,24,24h56v286c-0.3,30.7,23.6,56.3,54.3,58h3.3H351c30.9,0,56-25.1,56-56c0-4.4-3.6-8-8-8 h-24V408.3L444.4,338.9z M213.3,510.6l8.1,8.1l-14.6,6.5L213.3,510.6z M237.1,511.8l-16.8-16.8l5.3-12l23.5,23.5L237.1,511.8z  M263,497.7L234.3,469L367,336.3l28.7,28.7L263,497.7z M323.7,357H199v-16h140.7L323.7,357z M378.3,325l12.7-12.7l28.7,28.7 L407,353.7L378.3,325z M418.7,293c11.2,0,20.3,9.1,20.3,20.3c0,5.4-2.1,10.5-5.9,14.3l-2,2L402.3,301l2.1-2.1 C408.2,295.1,413.3,293,418.7,293z M39,285h-56c-4.4,0-8-3.6-8-8v-80c0-17.7,14.3-32,32-32s32,14.3,32,32V285z M351,629H134.2 c8.8-8.6,14.5-19.8,16.2-32h239.8C386.4,615.6,370,629,351,629z M359,581H143c-4.4,0-8,3.6-8,8c0,21.6-17.1,39.3-38.7,40h-2.7 c-22-1.5-39-19.9-38.6-42V197c0-11.8-4.4-23.2-12.3-32H327c17.7,0,32,14.3,32,32v124.7l-3.3,3.3H191c-4.4,0-8,3.6-8,8v32 c0,4.4,3.6,8,8,8h116.7l-90.3,90.3c-0.7,0.7-1.2,1.5-1.6,2.4l-32,72c-1.8,4,0,8.8,4,10.6c1,0.5,2.2,0.7,3.3,0.7 c1.1,0,2.2-0.2,3.2-0.7l72-32c0.9-0.4,1.7-1,2.4-1.6l90.4-90.4V581z"></path><path d="M79,373h80c4.4,0,8-3.6,8-8v-52.7l37.7-37.7l-11.3-11.3L167,289.7V285c0-4.4-3.6-8-8-8H79c-4.4,0-8,3.6-8,8v80 C71,369.4,74.6,373,79,373z M87,293h64v12.7l-24,24l-18.3-18.3l-11.3,11.3l24,24c3.1,3.1,8.2,3.1,11.3,0c0,0,0,0,0,0l18.3-18.3V357 H87V293z"></path><path d="M204.6,402.7l-11.3-11.3L167,417.7V413c0-4.4-3.6-8-8-8H79c-4.4,0-8,3.6-8,8v80c0,4.4,3.6,8,8,8h80c4.4,0,8-3.6,8-8v-52.7 L204.6,402.7z M151,485H87v-64h64v12.7l-24,24l-18.3-18.3l-11.3,11.3l24,24c3.1,3.1,8.2,3.1,11.3,0c0,0,0,0,0,0l18.3-18.3V485z"></path><path d="M119,245h176c17.7,0,32-14.3,32-32s-14.3-32-32-32H119c-17.7,0-32,14.3-32,32S101.3,245,119,245z M119,197h176 c8.8,0,16,7.2,16,16s-7.2,16-16,16H119c-8.8,0-16-7.2-16-16S110.2,197,119,197z"></path><path d="M279,549h64v16h-64V549z"></path></svg>