<svg xmlns="http://www.w3.org/2000/svg" xmlns:xlink="http://www.w3.org/1999/xlink" id="Layer_1" x="0px" y="0px" viewBox="-49 141 512 512" style="enable-background:new -49 141 512 512;" xml:space="preserve"><style type="text/css">	.st0{fill:#805EEF;}</style><path class="st0" d="M190.2,260.9c6.4-8.7,18.6-20.7,33-18.8c13.9,1.8,62.1,21.1,93,35.3c13.6,6.2,23.8,11.6,26.7,14.1 c2.4,2.1,4.4,5.5,5.7,9.7c1.7,5.6,2.3,12.7,1.7,19.7c-0.1,1.3-0.9,2.5-2,3.1c-1.1,0.6-2.5,0.7-3.7,0.1 c-48.9-24.2-109.2-44.6-152.1-57c-1.3-0.4-2.3-1.3-2.7-2.6C189.2,263.3,189.4,262,190.2,260.9L190.2,260.9z"></path><path class="st0" d="M276.8,261.6c0.9,2,0,4.4-2,5.3c-2,0.9-4.4,0-5.3-2c0,0-2.3-5.1-2.9-11.4c-0.4-4.5,0.1-9.5,2.5-13.8 c3.9-6.8,13.1-12.6,33.5-10.3c13.1,1.5,23.2,1.6,31,0.1c7.1-1.3,12.1-3.8,15.6-7.7c3.1-3.4,5-7.9,6.3-13.3c0.5-2.1,2.7-3.5,4.8-2.9 c2.1,0.5,3.5,2.7,2.9,4.8c-2.3,9.2-6.2,16.1-12.7,20.8c-9.2,6.6-24.2,8.9-49,6.1c-15.5-1.7-22.8,1.2-25.7,6.4 c-1.6,2.9-1.8,6.2-1.5,9.1C275,257.7,276.8,261.6,276.8,261.6z"></path><path class="st0" d="M154.3,413.2c-6.2,11.6-18.1,32-37.7,59.4c-26.7,37.2-75.8,38.6-107.5,19.7c-21.6-12.8-35-34.8-28.5-61.1 c42.6-171.5,122.6-191.6,164.8-184.3c9,1.6,26.7,5.9,49.2,12.4c43.3,12.5,104.1,33.2,153.4,57.6c25.9,12.8,48.5,26.7,64,40.9 c10.8,10,18.1,20.2,20.8,30.3c4.6,17.1-1.1,58.5-17.9,99c-16.8,40.5-44.4,80.1-82.6,94.1c-31.6,11.6-53.8,6.7-68.7-5.7 c-22.1-18.4-27.8-54-22.5-79.3c3.5-16.8,5.8-27.5,7.4-34.3c2.4,1,7.3,2.8,13.3,4.3c1.6,0.4,3.3,0.8,5.1,1.1c1.7,0.3,3.4,0.5,5.2,0.7 c1.2,0.3,2.4-0.5,2.6-1.7c0.3-1.2-0.5-2.4-1.7-2.6c-2.4-0.9-4.7-1.9-7-2.8c-2.5-1-4.8-1.9-6.9-2.8c-5.3-2.3-8.9-4.2-8.9-4.2 l-92.5-48c-0.1-0.1-0.3-0.1-0.4-0.2c-0.9-0.4-2.8-1.2-5.7-2.8c-2.3-1.3-5.2-3.1-9-5.4c-1.9-1.1-4-2.2-6.2-3.5 c-0.9-0.7-2.3-0.6-3,0.4c-0.7,0.9-0.6,2.3,0.4,3c2,2.1,3.8,3.9,5.6,5.5c1.4,1.3,2.9,2.3,4.1,3.2c5.2,3.9,8.5,5.7,10.2,6.6 C154,413.1,154.1,413.2,154.3,413.2L154.3,413.2z M327.4,376.5c-11,0-19.9,8.9-19.9,19.9c0,11,8.9,19.9,19.9,19.9 s19.9-8.9,19.9-19.9C347.3,385.4,338.4,376.5,327.4,376.5z M327.4,384.5c6.6,0,11.9,5.3,11.9,11.9c0,6.6-5.3,11.9-11.9,11.9 s-11.9-5.3-11.9-11.9C315.6,389.8,320.9,384.5,327.4,384.5z M289.9,367.4c5.1-10.7,0.6-23.5-10.1-28.7l-66-31.6 c-10.7-5.1-23.5-0.6-28.7,10.1c0,0,0,0.1,0,0.1l-1.4,2.9c-5.1,10.7-0.6,23.5,10.1,28.7l66,31.6c10.7,5.1,23.5,0.6,28.7-10.1 c0,0,0,0,0-0.1L289.9,367.4z M281.3,366.9c-3.2,6.7-11.3,9.6-18,6.3l-66-31.6c-6.7-3.2-9.5-11.2-6.4-17.9c0-0.1,0.1-0.2,0.1-0.2 l1.3-2.8c0,0,0-0.1,0-0.1c3.2-6.7,11.3-9.6,18-6.3l66,31.6c6.7,3.2,9.6,11.3,6.3,18L281.3,366.9z M196.8,376.9l-22.9-12.2 c-1.9-1-4.4-0.3-5.4,1.6c-1,1.9-0.3,4.4,1.6,5.4l22.9,12.2c1.9,1,4.4,0.3,5.4-1.6C199.5,380.4,198.8,378,196.8,376.9z M377.4,398.2 c-11,0-19.9,8.9-19.9,19.9c0,11,8.9,19.9,19.9,19.9s19.9-8.9,19.9-19.9C397.3,407.1,388.3,398.2,377.4,398.2z M377.4,406.2 c6.6,0,11.9,5.3,11.9,11.9s-5.3,11.9-11.9,11.9s-11.9-5.3-11.9-11.9C365.5,411.6,370.8,406.2,377.4,406.2z M255.2,407.5l-37-19.7 c-1.9-1-4.4-0.3-5.4,1.6c-1,1.9-0.3,4.4,1.7,5.4l37,19.7c1.9,1,4.4,0.3,5.4-1.7C257.9,410.9,257.1,408.5,255.2,407.5L255.2,407.5z  M333,429.4c-11,0-19.9,8.9-19.9,19.9s8.9,19.9,19.9,19.9s19.9-8.9,19.9-19.9S343.9,429.4,333,429.4z M333,437.4 c6.6,0,11.9,5.3,11.9,11.9s-5.3,11.9-11.9,11.9s-11.9-5.3-11.9-11.9S326.4,437.4,333,437.4z M107,295.4l-8.5,14 c-0.3,0.5-0.8,0.8-1.3,1c-0.6,0.1-1.1,0-1.6-0.3l-12.9-8.4c-4.3-2.8-10-1.9-13.3,2l-9,10.8c-1.8,2.2-2.6,5-2.3,7.7 c0.4,2.8,1.9,5.3,4.1,6.9l14,10c0.5,0.3,0.8,0.8,0.9,1.4c0.1,0.6-0.1,1.1-0.4,1.6l-11.5,15.1c-1.8,2.4-2.5,5.5-1.8,8.4 c0.7,2.9,2.6,5.4,5.3,6.8l13.3,6.7c4.5,2.2,9.9,0.9,12.8-3.2l8.9-12.5c0.3-0.5,0.8-0.8,1.4-0.9s1.1,0,1.6,0.4l9.7,7 c2.4,1.8,5.6,2.3,8.5,1.6c2.9-0.8,5.3-2.8,6.6-5.5l10.2-22.2c2-4.4,0.7-9.6-3.3-12.4l-6.2-4.4c-0.5-0.3-0.8-0.9-0.9-1.4 c-0.1-0.6,0.1-1.2,0.4-1.6l6.9-8.5c1.9-2.3,2.6-5.4,2-8.3c-0.6-2.9-2.4-5.4-5-6.9l-15.1-8.4C115.8,289.1,109.8,290.7,107,295.4 L107,295.4z M113.8,299.5c0.6-1,1.8-1.3,2.8-0.7l15.1,8.4c0.5,0.3,0.9,0.8,1,1.4c0.1,0.6,0,1.2-0.4,1.7l-6.9,8.5 c-1.7,2.2-2.5,4.9-2.1,7.7c0.4,2.7,1.9,5.2,4.1,6.8l6.2,4.4c0.8,0.6,1.1,1.7,0.7,2.6l-10.2,22.2c-0.3,0.6-0.8,1-1.4,1.2 c-0.6,0.2-1.3,0-1.8-0.3l-9.7-7c-2.2-1.6-4.9-2.2-7.6-1.8c-2.7,0.4-5,1.9-6.6,4.1l-8.9,12.5c-0.6,0.9-1.7,1.1-2.7,0.7l-13.3-6.7 c-0.6-0.3-1-0.8-1.1-1.4c-0.1-0.6,0-1.3,0.4-1.8L82.9,347c1.7-2.2,2.4-4.9,2-7.6c-0.4-2.7-1.9-5.1-4.1-6.7l-14-10 c-0.5-0.3-0.8-0.9-0.9-1.5c-0.1-0.6,0.1-1.2,0.5-1.6l9-10.8c0.7-0.8,1.9-1,2.8-0.4l12.9,8.4c2.3,1.5,5.1,2,7.7,1.4 c2.7-0.6,5-2.3,6.4-4.6L113.8,299.5L113.8,299.5z"></path></svg>