<svg xmlns="http://www.w3.org/2000/svg" xmlns:xlink="http://www.w3.org/1999/xlink" id="Layer_1" x="0px" y="0px" viewBox="-49 141 512 512" style="enable-background:new -49 141 512 512;" xml:space="preserve"><style type="text/css">	.st0{fill:#EFEFEF;}	.st1{fill:#805EEF;}	.st2{fill:#AFAFAF;}	.st3{fill:#FFFFFF;}</style><g>	<path class="st0" d="M388.8,335.3c21.8-94.7-50-184.3-146.2-184.8c-72.9-0.4-134,51.1-148.4,119.8c-61.8-26.5-131,18.7-131.4,86.2  c-0.3,52.1,41.7,96.2,93.8,96.4h335.3c32.5,0.2,59.1-26.1,59.2-58.6C451.3,360.9,423.5,333.3,388.8,335.3L388.8,335.3z"></path>	<path class="st1" d="M392.2,429.3c-2.8,0-5-2.2-5-5s2.2-5,5-5c13.9,0,25.2-11.3,25.3-25.2c0-14-11.3-25.4-25.2-25.4  c-2,0-37.6,2.1-39.6,2.2c-3.4,0.2-5.9-2.9-5.2-6.1c4.5-19.6,11.3-42.3,11.3-66.1c0-60.9-51.3-114.6-116.8-114.6  c-14.7,0-29,2.7-42.7,8c-2.6,1-5.5-0.3-6.5-2.8s0.3-5.5,2.8-6.5c14.8-5.8,30.4-8.7,46.3-8.7c71,0,126.8,58.2,126.8,124.6  c0,22.3-5.5,43.2-10,61.9c32.1-1.9,33.1-1.9,33.5-1.9c19.4,0,35.2,15.8,35.2,35.2C427.5,413.6,411.6,429.3,392.2,429.3z   M170.3,202.2c-1.5-2.3-0.9-5.4,1.4-6.9c1.7-1.1,3.5-2.3,5.3-3.3c2.4-1.4,5.4-0.6,6.9,1.7c1.4,2.4,0.6,5.4-1.7,6.9  c-1.6,1-3.3,2-4.9,3.1C175,205.2,171.9,204.5,170.3,202.2z"></path>	<path class="st2" d="M355.8,452.9H69.1c0-79.2,64.2-143.3,143.3-143.3S355.8,373.8,355.8,452.9z"></path>	<path class="st1" d="M162.9,403.3c-12.7,12.7-20.5,30.2-20.5,49.6H92.4c0-33.2,13.4-63.2,35.2-84.9L162.9,403.3z"></path>	<path class="st1" d="M332.6,452.9h-49.9c0-19.4-7.9-36.9-20.5-49.6l35.3-35.3C319.1,389.7,332.6,419.8,332.6,452.9z"></path>	<path class="st1" d="M297.4,368l-35.3,35.3c-27.4-27.4-71.8-27.4-99.2,0L127.6,368C174.4,321.2,250.5,321.1,297.4,368z"></path>	<path class="st0" d="M233,452.9h-41c0-11.3,9.2-20.5,20.5-20.5C223.8,432.4,233,441.6,233,452.9z"></path>	<path class="st3" d="M108.8,456.5c-2.8,0-5-2.3-4.9-5.1c0.4-28.4,11.7-55.2,31.8-75.3c2-2,5.1-2,7.1,0c2,2,2,5.1,0,7.1  c-18.3,18.3-28.5,42.6-28.9,68.4C113.8,454.2,111.7,456.5,108.8,456.5L108.8,456.5z"></path>	<path class="st3" d="M316.1,457.9c-2.8,0-5-2.2-5-5c0-26.3-10.3-51.1-28.9-69.7c-2-2-2-5.1,0-7.1c2-2,5.1-2,7.1,0  c20.5,20.5,31.8,47.8,31.8,76.8C321.1,455.7,318.9,457.9,316.1,457.9L316.1,457.9z"></path>	<path class="st3" d="M282.2,383.2c-38.6-38.5-100.9-38.5-139.5,0c-2,2-5.1,2-7.1,0c-2-2-1.9-5.1,0-7.1  c42.5-42.4,111.1-42.4,153.6,0c2,2,2,5.1,0,7.1C287.3,385.2,284.2,385.2,282.2,383.2z"></path>	<path class="st1" d="M108.8,563.5H79.1l54.3,80l54.3-80h-29.6l0-74.5l-49.3,0L108.8,563.5z"></path>	<path class="st3" d="M128.2,567.4c-2.8,0-5-2.2-5-5V536c0-2.8,2.2-5,5-5s5,2.2,5,5v26.3C133.2,565.1,131,567.4,128.2,567.4z   M128.2,521c-2.8,0-5-2.2-5-5v-8c0-2.8,2.2-5,5-5s5,2.2,5,5v8C133.2,518.8,131,521,128.2,521z"></path>	<path class="st1" d="M305.2,569h29.7l-54.3-80l-54.3,80h29.6l0,74.5h49.3L305.2,569z"></path>	<path class="st3" d="M285.8,629.5c-2.8,0-5-2.2-5-5v-8c0-2.8,2.2-5,5-5s5,2.2,5,5v8C290.8,627.2,288.5,629.5,285.8,629.5z   M285.8,601.5c-2.8,0-5-2.2-5-5v-26.3c0-2.8,2.2-5,5-5s5,2.2,5,5v26.3C290.8,599.2,288.5,601.5,285.8,601.5z"></path>	<path d="M183.6,341.5c2.7-0.7,4.3-3.4,3.6-6.1c-0.7-2.6-3.5-4.3-6.1-3.6c-2.7,0.7-4.3,3.4-3.6,6.1  C178.2,340.5,180.8,342.2,183.6,341.5z"></path>	<path d="M425.5,448.6c2.3-1.4,3.1-4.5,1.7-6.9c-1.5-2.5-4.7-3-6.9-1.7c-2.4,1.5-3.1,4.6-1.7,6.9C420.1,449.3,423.2,450,425.5,448.6  z"></path>	<path d="M395,330.2c1.8-9.7,2.7-19.5,2.7-29.2c0-83.2-67.2-155.1-155.1-155.5c-75.5,0-135.4,51.6-152,118  c-26.2-9.4-54.4-7.4-79,5.3c-2.5,1.3-3.4,4.3-2.1,6.7c1.3,2.5,4.4,3.4,6.7,2.1c23.3-12,50.7-13.6,76-2.8c2.9,1.3,6.2-0.6,6.9-3.6  c13.7-65.4,72-115.8,143.5-115.8c80,0.4,145.2,65.7,145.2,145.5c0,11-1.3,22.2-3.8,33.1c-0.7,3.3,1.9,6.3,5.2,6.1  c30.9-1.8,57,22.9,57,53.8v0.3v0c-0.1,12.4-4.3,24.1-12.1,33.8c-1.8,2.3-1.3,5.4,0.7,7c2.2,1.8,5.3,1.4,7-0.7v0  c9.2-11.3,14.3-25.5,14.4-40c0-0.1,0-0.2,0-0.3V394C456.1,359.9,429.3,331.6,395,330.2L395,330.2z"></path>	<path d="M-5.9,280.3c-2.1,1.7-2.5,4.8-0.7,7c1.8,2.1,4.9,2.4,7,0.7c2.1-1.7,2.5-4.9,0.7-7C-0.5,279-3.8,278.6-5.9,280.3z"></path>	<path d="M-42.2,356.7v0.3c0,54.6,44.1,100.6,98.8,100.9h335.6c4.5,0,8.9-0.5,13.2-1.4c2.7-0.6,4.4-3.2,3.9-5.9  c-0.6-2.6-3.3-4.4-5.9-3.9c-3.6,0.8-7.4,1.2-11.2,1.2h-31.5c-2.7-83.5-72-143.4-148.2-143.5c-77.9-0.1-145.5,61.7-148.2,143.5h-7.6  c-49-0.2-88.8-41-88.8-90.9c0-0.1,0-0.3,0-0.4c0.1-20.3,6.8-39.4,19.3-55.1c1.7-2.2,1.4-5.3-0.8-7c-2.1-1.7-5.3-1.3-7,0.8  c0,0,0,0,0,0c-14,17.4-21.4,38.6-21.5,61.3L-42.2,356.7z M97.5,447.9c1.2-27,11.9-52.8,30.1-72.8c10.2,10.2,17.8,17.8,28.3,28.3  c-10.6,12.1-17.3,27.5-18.4,44.5H97.5z M225.7,389.1l-12.1,38.4c-13.1-0.6-23.8,8.6-26.1,20.5h-39.9  C150.5,409.1,186.9,381.2,225.7,389.1z M277.4,447.9h-39.9c-1.6-8-7-14.7-14.2-18.1l12-38C258.3,400.5,275.4,421.9,277.4,447.9  L277.4,447.9z M197.8,447.9c2.1-6.3,8-10.5,14.7-10.5c6.7,0,12.5,4.2,14.7,10.5H197.8z M287.5,447.9c-1.1-17-7.9-32.5-18.4-44.5  c6.1-6.1,22.3-22.3,28.3-28.3c18.3,19.9,29,45.8,30.1,72.8H287.5z M212.5,314.6c74.6,0,135.6,59,138.2,133.3h-13.3  c-2.7-71.1-64.6-125.9-135.8-119.6c-2.8,0.2-4.8,2.7-4.6,5.4c0.2,2.7,2.7,4.8,5.4,4.6c33.2-2.8,64.5,8.5,87.8,29.8L262,396.4  c-7-6.1-15-10.9-23.7-14l4.1-12.8c0.8-2.6-0.6-5.4-3.3-6.3c-0.5-0.2-1-0.2-1.5-0.2c-2.2,0-4.1,1.4-4.8,3.5l-4.1,13.1  c-23.8-5.3-48.1,1.4-65.7,16.8l-28.3-28.3c9.2-8.4,19.5-15.2,30.8-20.3c2.5-1.1,3.7-4.1,2.5-6.6c-1.1-2.4-4.1-3.6-6.6-2.5  c-42.7,19.1-72.1,61-74,109.3H74.3C76.9,373.5,138,314.6,212.5,314.6L212.5,314.6z"></path>	<path d="M137.6,646.3l54.3-80c2.2-3.3-0.1-7.8-4.1-7.8h-24.6l0-69.5c0-2.7-2.2-5-5-5l-49.3,0c-2.8,0-5,2.2-5,5v69.5H79.1  c-4,0-6.4,4.5-4.1,7.8l54.3,80C131.2,649.2,135.6,649.3,137.6,646.3L137.6,646.3z M108.8,568.5c2.7,0,5-2.2,5-5V494l39.3,0l0,69.5  c0,2.7,2.2,5,5,5h20.2l-44.9,66.1l-44.9-66.1L108.8,568.5z"></path>	<path d="M226.3,574h24.6l0,69.5c0,2.8,2.2,5,5,5h49.3c2.7,0,5-2.2,5-5V574h24.7c4,0,6.4-4.4,4.1-7.8l-54.3-80c-2-2.9-6.3-2.9-8.3,0  l-54.3,80C219.9,569.6,222.3,574,226.3,574L226.3,574z M280.6,497.9l44.9,66.1h-20.2c-2.7,0-5,2.2-5,5v69.5h-39.3l0-69.5  c0-2.8-2.2-5-5-5h-20.2L280.6,497.9z"></path></g></svg>